<svg width="32" height="32" viewBox="0 0 32 32" fill="none" xmlns="http://www.w3.org/2000/svg">
<g clip-path="url(#clip0_14_120)">
<rect width="32" height="32" rx="5" fill="#EAD2BB"/>
<path d="M10.0001 15H19.5901L17.2901 12.71C17.1018 12.5217 16.996 12.2663 16.996 12C16.996 11.7337 17.1018 11.4783 17.2901 11.29C17.4784 11.1017 17.7338 10.9959 18.0001 10.9959C18.2664 10.9959 18.5218 11.1017 18.7101 11.29L22.7101 15.29C22.8011 15.3851 22.8725 15.4973 22.9201 15.62C23.0201 15.8635 23.0201 16.1365 22.9201 16.38C22.8725 16.5028 22.8011 16.6149 22.7101 16.71L18.7101 20.71C18.6171 20.8037 18.5065 20.8781 18.3847 20.9289C18.2628 20.9797 18.1321 21.0058 18.0001 21.0058C17.8681 21.0058 17.7374 20.9797 17.6155 20.9289C17.4937 20.8781 17.3831 20.8037 17.2901 20.71C17.1964 20.617 17.122 20.5064 17.0712 20.3846C17.0204 20.2627 16.9943 20.132 16.9943 20C16.9943 19.868 17.0204 19.7373 17.0712 19.6154C17.122 19.4936 17.1964 19.383 17.2901 19.29L19.5901 17H10.0001C9.73489 17 9.48053 16.8946 9.293 16.7071C9.10546 16.5196 9.0001 16.2652 9.0001 16C9.0001 15.7348 9.10546 15.4804 9.293 15.2929C9.48053 15.1054 9.73489 15 10.0001 15Z" fill="black"/>
</g>
<defs>
<clipPath id="clip0_14_120">
<rect width="32" height="32" rx="5" fill="white"/>
</clipPath>
</defs>
</svg>
