<svg width="68" height="68" viewBox="0 0 68 68" fill="none" xmlns="http://www.w3.org/2000/svg">
<g filter="url(#filter0_d_14_560)">
<rect x="10" y="6" width="48" height="48" rx="24" fill="#C8792F"/>
<g clip-path="url(#clip0_14_560)">
<path d="M40.3954 25.6918H40.331C40.1272 24.3962 39.4728 23.2168 38.4857 22.3659C37.4986 21.515 36.2435 21.0485 34.9466 21.0504C34.4494 21.0504 33.9676 21.1204 33.5079 21.2463L33.2918 20.0394C33.0494 18.595 31.7211 18.1672 31.1174 18.1984L27.3314 18.0011C27.161 17.9863 27.0094 18.1272 27.0004 18.303C26.9983 18.3448 27.0043 18.3866 27.0181 18.4261C27.032 18.4656 27.0534 18.5019 27.0811 18.533C27.1088 18.5641 27.1423 18.5893 27.1797 18.6073C27.2171 18.6253 27.2576 18.6357 27.2989 18.6378L31.1009 18.836C31.1118 18.8365 31.1236 18.8362 31.1356 18.836C31.4905 18.8119 32.4922 19.0877 32.6704 20.15L32.9036 21.4509C32.032 21.8057 31.266 22.3829 30.6804 23.126C30.0948 23.8692 29.7094 24.7532 29.5619 25.6918H29.4985C29.3384 25.6921 29.1848 25.7566 29.0716 25.8711C28.9583 25.9857 28.8946 26.141 28.8943 26.303V27.9986C28.8946 28.1606 28.9583 28.3159 29.0716 28.4305C29.1848 28.545 29.3384 28.6095 29.4985 28.6098H29.595L30.5426 37.1457C30.5386 37.1655 30.5308 37.1839 30.5308 37.2049C30.5308 37.2548 30.5443 37.3005 30.5644 37.3424L31.0213 41.4565C31.0378 41.606 31.1082 41.7442 31.2191 41.8444C31.3299 41.9447 31.4735 42.0001 31.6222 42H38.2432C38.5512 42 38.8094 41.7664 38.8438 41.4565L40.2707 28.6098H40.3957C40.5559 28.6095 40.7094 28.545 40.8227 28.4305C40.9359 28.3159 40.9997 28.1606 41 27.9986V26.303C40.9997 26.1409 40.9359 25.9856 40.8226 25.871C40.7093 25.7565 40.5557 25.692 40.3954 25.6918ZM34.9466 21.6882C37.3003 21.6882 39.2844 23.3858 39.6973 25.6918H34.305L33.6211 21.8759C34.0522 21.7515 34.4983 21.6884 34.9466 21.6882ZM33.0191 22.0953L33.6637 25.6918H30.1953C30.4882 24.056 31.574 22.7301 33.0191 22.0953ZM38.7166 36.8863H31.1485L30.4916 30.9705H39.2544C39.2976 30.9705 39.3388 30.9617 39.3764 30.9456L38.7166 36.8863ZM38.2194 41.3624H31.6452L31.2192 37.5241H38.6457L38.2194 41.3624ZM40.3691 27.9722H39.9885C39.8282 27.9722 39.6931 28.0944 39.6751 28.2555L39.4369 30.3987C39.3847 30.3575 39.3207 30.3344 39.2544 30.3329H30.4257L30.4209 30.3338L30.2295 28.6104H38.9369C39.0205 28.6104 39.1007 28.5768 39.1598 28.517C39.219 28.4572 39.2522 28.376 39.2522 28.2915C39.2522 28.2069 39.219 28.1258 39.1598 28.0659C39.1007 28.0061 39.0205 27.9725 38.9369 27.9725H29.5249V26.3299H40.3694L40.3691 27.9722Z" stroke="#F5F5F5" stroke-width="0.75"/>
</g>
</g>
<defs>
<filter id="filter0_d_14_560" x="0" y="0" width="68" height="68" filterUnits="userSpaceOnUse" color-interpolation-filters="sRGB">
<feFlood flood-opacity="0" result="BackgroundImageFix"/>
<feColorMatrix in="SourceAlpha" type="matrix" values="0 0 0 0 0 0 0 0 0 0 0 0 0 0 0 0 0 0 127 0" result="hardAlpha"/>
<feOffset dy="4"/>
<feGaussianBlur stdDeviation="5"/>
<feComposite in2="hardAlpha" operator="out"/>
<feColorMatrix type="matrix" values="0 0 0 0 0.376471 0 0 0 0 0.219608 0 0 0 0 0.0745098 0 0 0 0.3 0"/>
<feBlend mode="normal" in2="BackgroundImageFix" result="effect1_dropShadow_14_560"/>
<feBlend mode="normal" in="SourceGraphic" in2="effect1_dropShadow_14_560" result="shape"/>
</filter>
<clipPath id="clip0_14_560">
<rect width="24" height="24" fill="white" transform="translate(22 18)"/>
</clipPath>
</defs>
</svg>
