<svg width="67" height="126" viewBox="0 0 67 126" fill="none" xmlns="http://www.w3.org/2000/svg">
<path d="M168 42C168 63.3762 159.85 83.9482 145.211 99.5253C130.573 115.102 110.546 124.512 89.2106 125.838C67.8756 127.164 46.8376 120.306 30.3825 106.662C13.9275 93.0175 3.29331 73.6128 0.646439 52.4012C-2.00043 31.1895 3.53914 9.76661 16.1366 -7.50315C28.7341 -24.7729 47.4417 -36.5903 68.4484 -40.5478C89.455 -44.5054 111.18 -40.3054 129.198 -28.8034C147.216 -17.3015 160.171 0.637089 165.424 21.3578L147.804 25.8249C143.687 9.58821 133.536 -4.46835 119.417 -13.4812C105.298 -22.4941 88.2745 -25.7852 71.8138 -22.6841C55.3531 -19.583 40.6939 -10.3229 30.8226 3.20956C20.9512 16.7421 16.6105 33.5289 18.6845 50.1503C20.7586 66.7717 29.0915 81.9771 41.9856 92.6688C54.8797 103.361 71.365 108.734 88.083 107.695C104.801 106.656 120.494 99.2826 131.965 87.0765C143.436 74.8705 149.822 58.7503 149.822 42H168Z" fill="#E0BE9D"/>
</svg>
