<svg width="80" height="81" viewBox="0 0 80 81" fill="none" xmlns="http://www.w3.org/2000/svg">
<path d="M68.3154 44.3726L68.1834 45.4816C67.5056 47.7613 64.7507 49.8209 60.6138 51.3965L60.1209 51.5901C54.9807 53.4473 47.8776 54.6003 40.0176 54.6003C32.1575 54.6003 25.0545 53.4473 19.923 51.5813L19.4301 51.4141C15.2933 49.8385 12.5383 47.7701 11.8694 45.4904L11.7197 44.3726C11.7638 43.185 12.2578 42.0585 13.1016 41.2216C14.5023 42.0106 15.9762 42.662 17.5025 43.1668L18.0482 43.3516C23.655 45.2176 31.4358 46.3706 40.0528 46.3706C48.6698 46.3706 56.3978 45.2528 62.0221 43.378L62.5678 43.1844C64.0914 42.6725 65.5646 42.0213 66.9687 41.2392C67.7934 42.0787 68.2738 43.1965 68.3154 44.3726Z" stroke="#C8792F" stroke-width="2" stroke-linecap="round" stroke-linejoin="round"/>
<path d="M71 36.178L70.824 37.2606C70.3663 38.6953 69.002 40.042 66.9336 41.2391C65.5294 42.0213 64.0563 42.6724 62.5327 43.1843L61.9869 43.3779C56.3978 45.2527 48.617 46.3881 40.0176 46.3881C31.4182 46.3881 23.6286 45.2527 18.0131 43.3691L17.4673 43.1843C15.941 42.6795 14.4672 42.0281 13.0664 41.2391C10.9892 40.0508 9.62493 38.6953 9.16723 37.2606L9 36.178C9 33.8103 11.4205 31.6451 15.4869 29.9111V30.0168C16.0679 32.3052 18.462 34.3649 22.0619 35.9492L22.4932 36.134C26.9469 37.9912 33.1258 39.153 39.9648 39.153C46.8038 39.153 52.9739 37.9912 57.4364 36.134L57.8589 35.9492C61.4588 34.3649 63.8529 32.314 64.4426 30.0256V29.9199C68.5795 31.6451 71 33.8103 71 36.178Z" stroke="#C8792F" stroke-width="2" stroke-linecap="round" stroke-linejoin="round"/>
<path d="M55.1304 20.8807C60.9132 22.7467 64.6627 25.6601 64.6627 28.9344L64.5395 29.9202V30.0258C63.9498 32.3143 61.5645 34.3651 57.9558 35.9494L57.5421 36.1431C53.0708 37.9915 46.8831 39.1533 40.0617 39.1533C33.2402 39.1533 27.0438 37.9915 22.5812 36.1343L22.1588 35.9494C18.55 34.3651 16.1559 32.3055 15.575 30.017V29.9114L15.3726 28.9344C15.3726 25.6601 19.0957 22.7731 24.8785 20.8807M64.6627 49.5659L62.6559 67.3103C62.6559 74.1581 52.5162 79.7033 40.0177 79.7033C27.5191 79.7033 17.3706 74.1581 17.3706 67.3103L15.3726 49.5659L15.9623 49.8563C22.1236 52.7873 30.5909 54.6005 39.9912 54.6005C49.3916 54.6005 57.8853 52.7873 64.0114 49.8651L64.6627 49.5659Z" stroke="#C8792F" stroke-width="2" stroke-linecap="round" stroke-linejoin="round"/>
<path d="M40.0176 79.7019V54.5991" stroke="#C8792F" stroke-width="2" stroke-linecap="round" stroke-linejoin="round"/>
<path d="M27.8184 77.7402V53.5264" stroke="#C8792F" stroke-width="2" stroke-linecap="round" stroke-linejoin="round"/>
<path d="M52.2083 77.7402V53.5264" stroke="#C8792F" stroke-width="2" stroke-linecap="round" stroke-linejoin="round"/>
<path d="M50.4477 18.7232C50.4477 19.0489 50.4477 19.357 50.4037 19.6738C50.1651 22.2634 48.9676 24.6704 47.0462 26.4229C45.1249 28.1754 42.6181 29.1469 40.0176 29.1469C37.417 29.1469 34.9103 28.1754 32.9889 26.4229C31.0675 24.6704 29.8701 22.2634 29.6314 19.6738C29.6314 19.357 29.5874 19.0489 29.5874 18.7232C29.5874 15.957 30.6863 13.304 32.6423 11.348C34.5984 9.39198 37.2513 8.29309 40.0176 8.29309C42.7838 8.29309 45.4368 9.39198 47.3928 11.348C49.3488 13.304 50.4477 15.957 50.4477 18.7232Z" stroke="#C8792F" stroke-width="2" stroke-linecap="round" stroke-linejoin="round"/>
<path d="M40.0173 12.7734L43.4236 2" stroke="#C8792F" stroke-width="2" stroke-linecap="round" stroke-linejoin="round"/>
</svg>
