<svg width="80" height="80" viewBox="0 0 80 80" fill="none" xmlns="http://www.w3.org/2000/svg">
<mask id="path-1-inside-1_14_1240" fill="white">
<path d="M18.7439 42.3364C17.0516 42.3326 15.3963 42.8327 13.9874 43.7735C12.5785 44.7142 11.4794 46.0534 10.8292 47.6213C10.1789 49.1893 10.0068 50.9157 10.3346 52.5819C10.6624 54.2481 11.4753 55.7792 12.6706 56.9815C13.8658 58.1838 15.3895 59.0032 17.049 59.336C18.7084 59.6687 20.4289 59.4999 21.9926 58.8508C23.5564 58.2018 24.8932 57.1017 25.8337 55.6898C26.7743 54.2779 27.2763 52.6178 27.2763 50.9194C27.2763 48.6464 26.378 46.4663 24.7784 44.8573C23.1788 43.2483 21.0086 42.3417 18.7439 42.3366V42.3364ZM18.7439 57.1501C17.5152 57.1539 16.313 56.7918 15.2896 56.1095C14.2661 55.4272 13.4674 54.4554 12.9945 53.3173C12.5217 52.1791 12.396 50.9257 12.6333 49.7158C12.8707 48.5059 13.4604 47.3939 14.3278 46.5205C15.1953 45.6472 16.3014 45.0519 17.5062 44.8099C18.711 44.5679 19.9602 44.6901 21.0957 45.1611C22.2312 45.6322 23.202 46.4307 23.885 47.4558C24.568 48.4808 24.9326 49.6862 24.9326 50.9194C24.9333 52.5687 24.2821 54.151 23.1219 55.319C21.9617 56.4871 20.3872 57.1456 18.7439 57.1501ZM78.9219 47.0563C79.5333 46.053 79.7915 44.8728 79.6553 43.7047C79.519 42.5366 78.9961 41.4482 78.1703 40.6138C77.89 40.3321 77.5786 40.0832 77.2423 39.8721V36.737C77.2391 33.8474 76.0939 31.0772 74.0581 29.0339C72.0223 26.9907 69.262 25.8414 66.383 25.8381H41.1751C38.7443 25.8342 36.3827 26.6505 34.4698 28.1557L36.7798 14.1265C36.8118 13.9315 36.7944 13.7316 36.7292 13.5451C36.6639 13.3586 36.5529 13.1917 36.4063 13.0597C36.2598 12.9277 36.0824 12.8348 35.8907 12.7898C35.699 12.7447 35.499 12.7489 35.3093 12.8019L29.6606 14.3807C29.4484 14.44 29.2573 14.558 29.1089 14.7213C28.9606 14.8846 28.8611 15.0865 28.8218 15.3039L27.8537 20.6636L27.3184 14.5879C27.3014 14.3943 27.2368 14.208 27.1306 14.0456C27.0243 13.8832 26.8796 13.7497 26.7094 13.6572C26.5392 13.5646 26.3487 13.5158 26.1551 13.5151C25.9615 13.5144 25.7708 13.5619 25.5999 13.6532L22.2579 15.441L22.144 11.1451C22.1388 10.9468 22.0837 10.7531 21.9839 10.582C21.884 10.4108 21.7427 10.2677 21.573 10.1661C21.4033 10.0645 21.2107 10.0076 21.0132 10.0007C20.8157 9.99382 20.6197 10.0372 20.4434 10.1267L15.2098 12.7846C15.0141 12.884 14.8501 13.0366 14.7365 13.2249C14.6229 13.4132 14.5642 13.6298 14.5672 13.8499L14.5812 14.9006L12.2492 13.6534C12.0763 13.561 11.8832 13.5135 11.6873 13.5153C11.4915 13.5171 11.2992 13.5681 11.1281 13.6638C10.957 13.7594 10.8124 13.8965 10.7077 14.0626C10.603 14.2287 10.5415 14.4185 10.5287 14.6147L9.97185 23.1655L8.04998 15.5887C7.99577 15.3749 7.88271 15.1807 7.72372 15.0283C7.56474 14.8759 7.36624 14.7715 7.15092 14.727L1.40859 13.5394C1.21569 13.4995 1.01589 13.509 0.827624 13.567C0.639361 13.6251 0.468717 13.7299 0.331458 13.8716C0.194199 14.0134 0.0947536 14.1876 0.0423093 14.3781C-0.010135 14.5686 -0.0138861 14.7694 0.0314025 14.9617L4.00671 31.8602C3.51802 31.9139 3.04506 32.0656 2.61588 32.3062C2.1867 32.5469 1.81004 32.8715 1.50825 33.261C1.20645 33.6505 0.985662 34.0968 0.858981 34.5736C0.7323 35.0503 0.702305 35.5477 0.770776 36.0363L4.95952 66.1047C5.11284 67.1823 5.6471 68.1686 6.46481 68.8837C7.28251 69.5988 8.32915 69.995 9.41372 70H28.0738C29.1584 69.995 30.205 69.5988 31.0227 68.8837C31.8403 68.1686 32.3746 67.1822 32.5279 66.1047L32.5741 65.7724C33.5878 67.0927 34.8911 68.1609 36.3827 68.894C37.8742 69.627 39.5141 70.0053 41.1749 69.9994H66.3827C69.2617 69.9961 72.0219 68.8468 74.0578 66.8036C76.0936 64.7603 77.2387 61.9901 77.242 59.1006V55.9258C78.0833 55.4151 78.7792 54.6953 79.2623 53.8358C79.7454 52.9764 79.9995 52.0064 80 51.0196V50.4096C80.0036 49.2054 79.626 48.0311 78.9217 47.0562L78.9219 47.0563ZM77.3468 44.3062C77.3516 44.8173 77.2181 45.3201 76.9605 45.761C76.7029 46.2019 76.3309 46.5643 75.8842 46.8097C75.4352 47.0627 74.9262 47.1888 74.4115 47.1743C73.8967 47.1598 73.3955 47.0053 72.9614 46.7273C71.6559 45.9091 70.2775 45.5278 68.6234 45.5278C65.7514 45.5278 64.2692 46.6698 62.9614 47.6772C61.8033 48.5695 60.803 49.3401 58.7266 49.3401C56.6511 49.3401 55.6511 48.5695 54.4933 47.6772C53.1861 46.6698 51.7043 45.5278 48.8329 45.5278C45.9615 45.5278 44.4797 46.6698 43.1724 47.6772C42.0146 48.5695 41.0146 49.3401 38.9391 49.3401C37.0765 49.3401 36.0798 48.7188 35.0579 47.9463L35.9649 41.4351H74.4953C74.8704 41.4356 75.2417 41.5103 75.5881 41.6549C75.9344 41.7995 76.2489 42.0112 76.5137 42.2779C76.7785 42.5445 76.9884 42.8609 77.1314 43.2089C77.2743 43.557 77.3475 43.9299 77.3468 44.3064V44.3062ZM41.1751 28.1901H66.3828C68.6405 28.1927 70.805 29.0939 72.4014 30.6962C73.9979 32.2984 74.8959 34.4707 74.8984 36.7366V39.0997C74.7643 39.0889 74.6298 39.0833 74.4953 39.0828H36.2926L36.7169 36.0361C36.8403 35.1569 36.643 34.2625 36.1615 33.5177C35.68 32.7728 34.9466 32.2275 34.0963 31.9822C34.8732 30.8133 35.926 29.8554 37.1611 29.1938C38.3961 28.5322 39.7751 28.1873 41.1751 28.1901ZM28.6354 29.5237L30.9971 16.4488L34.1677 15.5625L31.4952 31.7931L31.4724 31.8386H28.8384L28.6346 29.5266L28.6354 29.5237ZM25.1399 16.5649L26.4856 31.8389H26.2268C26.0727 31.8389 25.92 31.8694 25.7777 31.9287C25.6353 31.9881 25.506 32.075 25.3971 32.1845C24.63 32.9586 23.735 33.5935 22.7518 34.0609L22.3278 18.0691L25.1399 16.5649ZM19.8504 13.0641L20.427 34.805C19.3582 35.0007 18.2637 35.0084 17.1923 34.8277L16.9517 16.8689V16.8624L16.9206 14.552L19.8504 13.0641ZM11.8292 30.7112C11.8292 30.7078 11.8297 30.7043 11.8298 30.7007L12.749 16.5862L14.6172 17.5854L14.8386 34.1067C13.8154 33.636 12.8847 32.985 12.0906 32.1845C11.9917 32.0855 11.8759 32.005 11.7487 31.947L11.8292 30.7112ZM2.73452 16.2155L5.95951 16.8823L9.47779 30.7522L9.40701 31.8389H6.40998L2.73452 16.2155ZM32.6409 48.3076L31.6865 55.1588C31.6838 55.1753 31.6813 55.1917 31.6796 55.2082L30.7562 61.8364C30.7551 61.8456 30.753 61.8547 30.7523 61.8642L30.207 65.7788C30.1339 66.2953 29.8783 66.7682 29.4868 67.1113C29.0952 67.4544 28.5938 67.6447 28.074 67.6476H9.41388C8.89413 67.6447 8.39273 67.4544 8.00117 67.1114C7.6096 66.7683 7.35397 66.2954 7.28092 65.7789L3.09186 35.7107C3.06417 35.5212 3.07792 35.3279 3.13215 35.1442C3.18639 34.9605 3.27981 34.7909 3.40593 34.647C3.52895 34.5031 3.68174 34.3877 3.85367 34.3089C4.02561 34.2302 4.21256 34.1899 4.40155 34.191H5.47827L5.48155 34.1913L5.48623 34.1912H10.7892C12.9564 36.1967 15.7962 37.3101 18.744 37.3101C21.6918 37.3101 24.5317 36.1967 26.6988 34.1912H33.0863C33.2753 34.1901 33.4623 34.2303 33.6342 34.309C33.8061 34.3877 33.9589 34.5031 34.0819 34.647C34.2081 34.7909 34.3015 34.9605 34.3557 35.1442C34.41 35.3279 34.4237 35.5212 34.396 35.7107L32.6465 48.2684C32.6443 48.2814 32.6426 48.2946 32.6409 48.3076ZM74.8986 59.1006C74.896 61.3665 73.998 63.5388 72.4016 65.141C70.8052 66.7433 68.6407 67.6445 66.383 67.6471H41.1751C39.3982 67.6541 37.6641 67.1002 36.2182 66.0637C34.7722 65.0271 33.6877 63.5605 33.1179 61.8714L33.8307 56.7546H38.1979L42.5535 63.316C42.6605 63.4772 42.8055 63.6094 42.9756 63.7008C43.1458 63.7922 43.3358 63.8401 43.5288 63.8401C43.7218 63.8401 43.9118 63.7922 44.082 63.7008C44.2521 63.6094 44.3971 63.4772 44.5041 63.316L48.8597 56.7547H74.8984L74.8986 59.1006ZM41.0143 56.7546H46.0435L43.5288 60.5428L41.0143 56.7546ZM77.6562 51.0197C77.6552 51.9165 77.2998 52.7763 76.6679 53.4104C76.0361 54.0446 75.1795 54.4013 74.2859 54.4023H34.3016C34.2538 54.4023 34.2066 54.3985 34.1591 54.3965L34.6951 50.5499C35.7335 51.1857 37.0279 51.6925 38.9391 51.6925C41.8105 51.6925 43.2922 50.5507 44.5997 49.5432C45.7575 48.6509 46.7574 47.8804 48.8329 47.8804C50.9083 47.8804 51.9082 48.651 53.0661 49.5432C54.3733 50.5507 55.8552 51.6925 58.7266 51.6925C61.5986 51.6925 63.0809 50.5507 64.3886 49.5433C65.5467 48.651 66.547 47.8804 68.6234 47.8804C70.168 47.8804 71.0553 48.306 71.7198 48.7225C72.5076 49.226 73.4168 49.5053 74.3504 49.5308C75.2839 49.5562 76.2069 49.3269 77.0208 48.8671C77.0892 48.829 77.1547 48.7876 77.2208 48.7468C77.5072 49.2538 77.6572 49.8269 77.6562 50.4097V51.0197Z"/>
</mask>
<path d="M18.7439 42.3364C17.0516 42.3326 15.3963 42.8327 13.9874 43.7735C12.5785 44.7142 11.4794 46.0534 10.8292 47.6213C10.1789 49.1893 10.0068 50.9157 10.3346 52.5819C10.6624 54.2481 11.4753 55.7792 12.6706 56.9815C13.8658 58.1838 15.3895 59.0032 17.049 59.336C18.7084 59.6687 20.4289 59.4999 21.9926 58.8508C23.5564 58.2018 24.8932 57.1017 25.8337 55.6898C26.7743 54.2779 27.2763 52.6178 27.2763 50.9194C27.2763 48.6464 26.378 46.4663 24.7784 44.8573C23.1788 43.2483 21.0086 42.3417 18.7439 42.3366V42.3364ZM18.7439 57.1501C17.5152 57.1539 16.313 56.7918 15.2896 56.1095C14.2661 55.4272 13.4674 54.4554 12.9945 53.3173C12.5217 52.1791 12.396 50.9257 12.6333 49.7158C12.8707 48.5059 13.4604 47.3939 14.3278 46.5205C15.1953 45.6472 16.3014 45.0519 17.5062 44.8099C18.711 44.5679 19.9602 44.6901 21.0957 45.1611C22.2312 45.6322 23.202 46.4307 23.885 47.4558C24.568 48.4808 24.9326 49.6862 24.9326 50.9194C24.9333 52.5687 24.2821 54.151 23.1219 55.319C21.9617 56.4871 20.3872 57.1456 18.7439 57.1501ZM78.9219 47.0563C79.5333 46.053 79.7915 44.8728 79.6553 43.7047C79.519 42.5366 78.9961 41.4482 78.1703 40.6138C77.89 40.3321 77.5786 40.0832 77.2423 39.8721V36.737C77.2391 33.8474 76.0939 31.0772 74.0581 29.0339C72.0223 26.9907 69.262 25.8414 66.383 25.8381H41.1751C38.7443 25.8342 36.3827 26.6505 34.4698 28.1557L36.7798 14.1265C36.8118 13.9315 36.7944 13.7316 36.7292 13.5451C36.6639 13.3586 36.5529 13.1917 36.4063 13.0597C36.2598 12.9277 36.0824 12.8348 35.8907 12.7898C35.699 12.7447 35.499 12.7489 35.3093 12.8019L29.6606 14.3807C29.4484 14.44 29.2573 14.558 29.1089 14.7213C28.9606 14.8846 28.8611 15.0865 28.8218 15.3039L27.8537 20.6636L27.3184 14.5879C27.3014 14.3943 27.2368 14.208 27.1306 14.0456C27.0243 13.8832 26.8796 13.7497 26.7094 13.6572C26.5392 13.5646 26.3487 13.5158 26.1551 13.5151C25.9615 13.5144 25.7708 13.5619 25.5999 13.6532L22.2579 15.441L22.144 11.1451C22.1388 10.9468 22.0837 10.7531 21.9839 10.582C21.884 10.4108 21.7427 10.2677 21.573 10.1661C21.4033 10.0645 21.2107 10.0076 21.0132 10.0007C20.8157 9.99382 20.6197 10.0372 20.4434 10.1267L15.2098 12.7846C15.0141 12.884 14.8501 13.0366 14.7365 13.2249C14.6229 13.4132 14.5642 13.6298 14.5672 13.8499L14.5812 14.9006L12.2492 13.6534C12.0763 13.561 11.8832 13.5135 11.6873 13.5153C11.4915 13.5171 11.2992 13.5681 11.1281 13.6638C10.957 13.7594 10.8124 13.8965 10.7077 14.0626C10.603 14.2287 10.5415 14.4185 10.5287 14.6147L9.97185 23.1655L8.04998 15.5887C7.99577 15.3749 7.88271 15.1807 7.72372 15.0283C7.56474 14.8759 7.36624 14.7715 7.15092 14.727L1.40859 13.5394C1.21569 13.4995 1.01589 13.509 0.827624 13.567C0.639361 13.6251 0.468717 13.7299 0.331458 13.8716C0.194199 14.0134 0.0947536 14.1876 0.0423093 14.3781C-0.010135 14.5686 -0.0138861 14.7694 0.0314025 14.9617L4.00671 31.8602C3.51802 31.9139 3.04506 32.0656 2.61588 32.3062C2.1867 32.5469 1.81004 32.8715 1.50825 33.261C1.20645 33.6505 0.985662 34.0968 0.858981 34.5736C0.7323 35.0503 0.702305 35.5477 0.770776 36.0363L4.95952 66.1047C5.11284 67.1823 5.6471 68.1686 6.46481 68.8837C7.28251 69.5988 8.32915 69.995 9.41372 70H28.0738C29.1584 69.995 30.205 69.5988 31.0227 68.8837C31.8403 68.1686 32.3746 67.1822 32.5279 66.1047L32.5741 65.7724C33.5878 67.0927 34.8911 68.1609 36.3827 68.894C37.8742 69.627 39.5141 70.0053 41.1749 69.9994H66.3827C69.2617 69.9961 72.0219 68.8468 74.0578 66.8036C76.0936 64.7603 77.2387 61.9901 77.242 59.1006V55.9258C78.0833 55.4151 78.7792 54.6953 79.2623 53.8358C79.7454 52.9764 79.9995 52.0064 80 51.0196V50.4096C80.0036 49.2054 79.626 48.0311 78.9217 47.0562L78.9219 47.0563ZM77.3468 44.3062C77.3516 44.8173 77.2181 45.3201 76.9605 45.761C76.7029 46.2019 76.3309 46.5643 75.8842 46.8097C75.4352 47.0627 74.9262 47.1888 74.4115 47.1743C73.8967 47.1598 73.3955 47.0053 72.9614 46.7273C71.6559 45.9091 70.2775 45.5278 68.6234 45.5278C65.7514 45.5278 64.2692 46.6698 62.9614 47.6772C61.8033 48.5695 60.803 49.3401 58.7266 49.3401C56.6511 49.3401 55.6511 48.5695 54.4933 47.6772C53.1861 46.6698 51.7043 45.5278 48.8329 45.5278C45.9615 45.5278 44.4797 46.6698 43.1724 47.6772C42.0146 48.5695 41.0146 49.3401 38.9391 49.3401C37.0765 49.3401 36.0798 48.7188 35.0579 47.9463L35.9649 41.4351H74.4953C74.8704 41.4356 75.2417 41.5103 75.5881 41.6549C75.9344 41.7995 76.2489 42.0112 76.5137 42.2779C76.7785 42.5445 76.9884 42.8609 77.1314 43.2089C77.2743 43.557 77.3475 43.9299 77.3468 44.3064V44.3062ZM41.1751 28.1901H66.3828C68.6405 28.1927 70.805 29.0939 72.4014 30.6962C73.9979 32.2984 74.8959 34.4707 74.8984 36.7366V39.0997C74.7643 39.0889 74.6298 39.0833 74.4953 39.0828H36.2926L36.7169 36.0361C36.8403 35.1569 36.643 34.2625 36.1615 33.5177C35.68 32.7728 34.9466 32.2275 34.0963 31.9822C34.8732 30.8133 35.926 29.8554 37.1611 29.1938C38.3961 28.5322 39.7751 28.1873 41.1751 28.1901ZM28.6354 29.5237L30.9971 16.4488L34.1677 15.5625L31.4952 31.7931L31.4724 31.8386H28.8384L28.6346 29.5266L28.6354 29.5237ZM25.1399 16.5649L26.4856 31.8389H26.2268C26.0727 31.8389 25.92 31.8694 25.7777 31.9287C25.6353 31.9881 25.506 32.075 25.3971 32.1845C24.63 32.9586 23.735 33.5935 22.7518 34.0609L22.3278 18.0691L25.1399 16.5649ZM19.8504 13.0641L20.427 34.805C19.3582 35.0007 18.2637 35.0084 17.1923 34.8277L16.9517 16.8689V16.8624L16.9206 14.552L19.8504 13.0641ZM11.8292 30.7112C11.8292 30.7078 11.8297 30.7043 11.8298 30.7007L12.749 16.5862L14.6172 17.5854L14.8386 34.1067C13.8154 33.636 12.8847 32.985 12.0906 32.1845C11.9917 32.0855 11.8759 32.005 11.7487 31.947L11.8292 30.7112ZM2.73452 16.2155L5.95951 16.8823L9.47779 30.7522L9.40701 31.8389H6.40998L2.73452 16.2155ZM32.6409 48.3076L31.6865 55.1588C31.6838 55.1753 31.6813 55.1917 31.6796 55.2082L30.7562 61.8364C30.7551 61.8456 30.753 61.8547 30.7523 61.8642L30.207 65.7788C30.1339 66.2953 29.8783 66.7682 29.4868 67.1113C29.0952 67.4544 28.5938 67.6447 28.074 67.6476H9.41388C8.89413 67.6447 8.39273 67.4544 8.00117 67.1114C7.6096 66.7683 7.35397 66.2954 7.28092 65.7789L3.09186 35.7107C3.06417 35.5212 3.07792 35.3279 3.13215 35.1442C3.18639 34.9605 3.27981 34.7909 3.40593 34.647C3.52895 34.5031 3.68174 34.3877 3.85367 34.3089C4.02561 34.2302 4.21256 34.1899 4.40155 34.191H5.47827L5.48155 34.1913L5.48623 34.1912H10.7892C12.9564 36.1967 15.7962 37.3101 18.744 37.3101C21.6918 37.3101 24.5317 36.1967 26.6988 34.1912H33.0863C33.2753 34.1901 33.4623 34.2303 33.6342 34.309C33.8061 34.3877 33.9589 34.5031 34.0819 34.647C34.2081 34.7909 34.3015 34.9605 34.3557 35.1442C34.41 35.3279 34.4237 35.5212 34.396 35.7107L32.6465 48.2684C32.6443 48.2814 32.6426 48.2946 32.6409 48.3076ZM74.8986 59.1006C74.896 61.3665 73.998 63.5388 72.4016 65.141C70.8052 66.7433 68.6407 67.6445 66.383 67.6471H41.1751C39.3982 67.6541 37.6641 67.1002 36.2182 66.0637C34.7722 65.0271 33.6877 63.5605 33.1179 61.8714L33.8307 56.7546H38.1979L42.5535 63.316C42.6605 63.4772 42.8055 63.6094 42.9756 63.7008C43.1458 63.7922 43.3358 63.8401 43.5288 63.8401C43.7218 63.8401 43.9118 63.7922 44.082 63.7008C44.2521 63.6094 44.3971 63.4772 44.5041 63.316L48.8597 56.7547H74.8984L74.8986 59.1006ZM41.0143 56.7546H46.0435L43.5288 60.5428L41.0143 56.7546ZM77.6562 51.0197C77.6552 51.9165 77.2998 52.7763 76.6679 53.4104C76.0361 54.0446 75.1795 54.4013 74.2859 54.4023H34.3016C34.2538 54.4023 34.2066 54.3985 34.1591 54.3965L34.6951 50.5499C35.7335 51.1857 37.0279 51.6925 38.9391 51.6925C41.8105 51.6925 43.2922 50.5507 44.5997 49.5432C45.7575 48.6509 46.7574 47.8804 48.8329 47.8804C50.9083 47.8804 51.9082 48.651 53.0661 49.5432C54.3733 50.5507 55.8552 51.6925 58.7266 51.6925C61.5986 51.6925 63.0809 50.5507 64.3886 49.5433C65.5467 48.651 66.547 47.8804 68.6234 47.8804C70.168 47.8804 71.0553 48.306 71.7198 48.7225C72.5076 49.226 73.4168 49.5053 74.3504 49.5308C75.2839 49.5562 76.2069 49.3269 77.0208 48.8671C77.0892 48.829 77.1547 48.7876 77.2208 48.7468C77.5072 49.2538 77.6572 49.8269 77.6562 50.4097V51.0197Z" stroke="#C8792F" stroke-width="4" mask="url(#path-1-inside-1_14_1240)"/>
</svg>
