<svg width="80" height="80" viewBox="0 0 80 80" fill="none" xmlns="http://www.w3.org/2000/svg">
<path d="M61.4362 33.8253H60.927H59.6764C59.6742 33.8253 59.6725 33.8255 59.671 33.8259C59.6701 33.8261 59.6693 33.8264 59.6685 33.8267C59.6658 33.8278 59.6619 33.8299 59.6575 33.8339C59.6488 33.8417 59.6425 33.8526 59.6408 33.8678L61.4362 33.8253ZM61.4362 33.8253C61.3045 33.8897 61.1599 33.9238 61.0126 33.924H60.6038H59.7085L59.6099 34.8138L54.9215 77.1007C54.9215 77.1008 54.9215 77.1008 54.9215 77.1009C54.9063 77.2373 54.866 77.3636 54.8061 77.4757L54.8575 77.0115L56.2583 64.3771L56.3813 63.267H55.2643H30.863H29.746L29.869 64.3771L31.2688 77.0114L31.3197 77.4702C31.2601 77.3573 31.2212 77.2325 31.2068 77.1017L31.2067 77.1009L29.7056 63.5586L29.6869 63.3894L29.6156 63.2409C29.6174 63.2326 29.6192 63.2239 29.621 63.2148L29.6507 63.0639L29.6338 62.911L26.5202 34.8139L26.4216 33.924H25.5263H25.2114C25.0648 33.9238 24.9209 33.89 24.7897 33.8262H25.296H56.2212C56.2264 33.8262 56.2342 33.8282 56.242 33.8361C56.2502 33.8445 56.2572 33.8586 56.2572 33.8761C56.2572 33.8935 56.2502 33.9076 56.242 33.916C56.2342 33.9239 56.2264 33.9259 56.2212 33.9259H27.6112H26.4942L26.6173 35.0361L27.2463 40.7089L27.345 41.5987H28.2402C28.2669 41.5987 28.2921 41.5976 28.3156 41.5959H57.2425C57.2428 41.5961 57.2432 41.5963 57.2437 41.5967L57.3325 41.6669L57.2693 41.6942L57.2689 41.6943C57.2687 41.6943 57.2681 41.6945 57.267 41.6945C57.2664 41.6946 57.2656 41.6946 57.2646 41.6946H28.4723H27.3553L27.4784 42.8048L29.637 62.2775L29.7356 63.1673H30.6309H55.4973H56.3926L56.4912 62.2775L58.6591 42.7227L58.8486 41.0134L58.8479 41.0137L58.858 40.9227L59.6407 33.8681L61.4362 33.8253ZM60.8018 26.3188L61.0122 26.3188C61.0125 26.3188 61.0128 26.3188 61.0132 26.3188C61.1617 26.3192 61.3075 26.3539 61.44 26.4194H60.9279H25.296H24.784C24.9164 26.3539 25.0622 26.3192 25.2105 26.3188C25.2108 26.3188 25.2111 26.3188 25.2114 26.3188L25.4176 26.3188H26.2729L26.4055 25.4738C26.8639 22.5526 28.0609 19.8026 29.8787 17.4915C31.6965 15.1805 34.0728 13.3873 36.7752 12.2853L37.5245 11.9798L37.382 11.1832L36.6168 6.90619C36.2686 4.83769 35.1036 3.50781 33.8593 2.72649C32.6686 1.9788 31.3614 1.70431 30.5459 1.75241L30.5396 1.75255L30.5239 1.75277C30.5228 1.75278 30.5218 1.75278 30.5211 1.75278L18.0343 1.10077L18.034 1.10076C18.0312 1.10061 18.0281 1.09991 18.0247 1.09827C18.0212 1.09662 18.0173 1.09387 18.0134 1.08953C18.0095 1.08518 18.0059 1.07936 18.0034 1.07215C18.0009 1.06492 17.9997 1.05688 18.0001 1.04867L18.0001 1.0482C18.0005 1.04044 18.0024 1.0325 18.0064 1.0241C18.0108 1.01505 18.0169 1.00713 18.023 1.00148C18.023 1.00146 18.0231 1.00144 18.0231 1.00141L18.0369 1.00213L30.4765 1.65162L30.5284 1.65433L30.5803 1.65165C31.3541 1.61161 32.7336 1.87753 34.0017 2.70042C35.2353 3.50094 36.3405 4.81126 36.6868 6.8783L36.6868 6.8783L36.6887 6.889L37.3987 10.8615L37.5914 11.9397L38.6477 11.65C40.077 11.2579 41.5711 11.0408 43.1102 11.0408L43.1116 11.0408C47.1311 11.0348 51.0226 12.4831 54.0851 15.1278C57.148 17.7728 59.1807 21.4412 59.8139 25.4739L59.9465 26.3188H60.8018ZM61.9279 27.4196L61.928 26.9542C61.9747 27.0729 61.9998 27.2011 62 27.3326V32.9103C61.9998 33.0427 61.9744 33.1719 61.9269 33.2914L61.927 32.8255L61.9279 27.4196ZM53.8636 77.9013H54.3667C54.2368 77.965 54.0922 78 53.9419 78H32.1872H32.1866C32.039 78.0001 31.8938 77.9661 31.7615 77.9013H32.2627H53.8636ZM24.296 32.8262V33.2888C24.2494 33.1703 24.2243 33.0422 24.224 32.9109V27.3319C24.2243 27.2006 24.2494 27.0726 24.296 26.954V27.4194V32.8262ZM43.1102 11.1404H43.1098C41.543 11.1409 39.984 11.3621 38.4775 11.7975L37.6122 12.0476L37.7708 12.9343L40.0178 25.4949L40.1652 26.3188H41.0022H58.7196H59.9142L59.704 25.1429C58.2642 17.0865 51.3395 11.1404 43.1102 11.1404ZM37.7614 13.3044L37.5376 12.0533L36.3743 12.5652C31.3264 14.7864 27.5364 19.4249 26.5145 25.1429L26.3043 26.3188H27.4989H38.8951H40.0899L39.8795 25.1427L37.7614 13.3044Z" stroke="#C8792F" stroke-width="2"/>
</svg>
