<svg width="80" height="80" viewBox="0 0 80 80" fill="none" xmlns="http://www.w3.org/2000/svg">
<path d="M21.2278 66.3789C17.375 66.3789 14.2404 63.2444 14.2404 59.3915C14.2404 55.5386 17.375 52.4041 21.2278 52.4041C25.0807 52.4041 28.2152 55.5386 28.2152 59.3915C28.2152 63.2444 25.0807 66.3789 21.2278 66.3789ZM21.2278 54.7332C18.6592 54.7332 16.5695 56.8229 16.5695 59.3915C16.5695 61.9601 18.6592 64.0498 21.2278 64.0498C23.7964 64.0498 25.8861 61.9601 25.8861 59.3915C25.8861 56.8229 23.7964 54.7332 21.2278 54.7332ZM36.3672 41.923C36.3672 38.0701 39.5018 34.9355 43.3546 34.9355C47.2075 34.9355 50.342 38.0701 50.342 41.923C50.342 45.7758 47.2075 48.9104 43.3546 48.9104C39.5018 48.9104 36.3672 45.7758 36.3672 41.923ZM48.0129 41.923C48.0129 39.3544 45.9232 37.2647 43.3546 37.2647C40.7861 37.2647 38.6963 39.3544 38.6963 41.923C38.6963 44.4915 40.7861 46.5812 43.3546 46.5812C45.9232 46.5812 48.0129 44.4915 48.0129 41.923Z" fill="#C8792F"/>
<path d="M55.0001 70.3387C55.6434 70.3387 56.1647 70.8599 56.1647 71.5032V74.5311C56.1647 75.8154 57.2095 76.8603 58.4938 76.8603C59.7809 76.8603 60.823 75.8185 60.823 74.5311V54.8468C60.823 53.5131 61.5998 52.2773 62.8029 51.6978L64.6316 50.8188C63.8215 50.2228 63.1214 49.4704 62.5847 48.5858C61.2317 46.3541 59.7455 44.1649 58.1674 42.0794C57.7794 41.5663 57.8806 40.8361 58.3935 40.4479C58.9065 40.0599 59.6367 40.1613 60.025 40.674C61.6509 42.823 63.1822 45.0787 64.5764 47.378C66.5471 50.6273 71.1516 50.9346 73.512 47.9278C74.8191 46.2616 75.0416 43.9725 74.0786 42.0965C66.6262 27.5825 55.1111 16.3466 41.423 9.18092C40.8531 8.88264 40.6331 8.17893 40.9313 7.60906C41.2298 7.03905 41.9338 6.81949 42.5032 7.11746C56.5836 14.4886 68.4607 26.0562 76.1506 41.0328C77.5272 43.7154 77.2109 46.9861 75.3442 49.3659C73.4587 51.7672 70.3313 52.8524 67.3425 52.1001L63.8128 53.7967C63.4114 53.99 63.1521 54.4021 63.1521 54.8469V74.5313C63.1521 77.106 61.0688 79.1895 58.4938 79.1895C55.9253 79.1895 53.8356 77.0998 53.8356 74.5313V71.5034C53.8356 70.8599 54.3568 70.3387 55.0001 70.3387Z" fill="#C8792F"/>
<path d="M2.86972 71.0157L15.4752 11.4143C14.0255 8.68174 14.3418 5.377 16.2329 2.97209C18.106 0.587824 21.2142 -0.494759 24.1512 0.214541C28.9559 1.37259 33.7002 2.99972 38.2523 5.05045C38.8386 5.31458 39.0998 6.00416 38.8357 6.59064C38.5714 7.17696 37.8819 7.43829 37.2955 7.17401C32.8755 5.18275 28.2696 3.60313 23.6051 2.47877C21.5663 1.98639 19.4089 2.73001 18.0942 4.37361C18.0827 4.38975 18.0709 4.4059 18.0585 4.42159C15.7127 7.40909 17.0677 11.8141 20.7025 12.9664C35.4112 17.6328 47.8347 26.1889 57.0627 36.9919C57.4804 37.4809 57.4226 38.216 56.9337 38.6337C56.4415 39.0542 55.7072 38.9907 55.292 38.5046C49.7014 31.9607 43.0071 26.3871 35.4905 22.0285C34.2789 24.2216 31.9686 25.6194 29.38 25.6194C25.5271 25.6194 22.3926 22.4848 22.3926 18.632C22.3926 17.7783 22.5478 16.9402 22.8463 16.1538C21.9047 15.8151 20.9566 15.4903 19.9985 15.1864C19.0203 14.8763 18.1304 14.3788 17.3643 13.7392L13.1055 33.8754C16.3911 34.4439 18.8987 37.3129 18.8987 40.7586C18.8987 45.2827 14.635 48.6407 10.216 47.5374L5.14854 71.4975C4.79094 73.1886 5.38907 74.8352 6.74851 75.9022C8.10795 76.9694 9.84983 77.1593 11.408 76.4101L24.2167 70.2519C24.9889 69.8808 25.886 70.4444 25.886 71.3016V74.5313C25.886 75.8156 26.9308 76.8604 28.2151 76.8604C29.5022 76.8604 30.5442 75.8187 30.5442 74.5313V69.4056C30.5442 68.072 31.3211 66.8361 32.5243 66.2565L36.0176 64.5783C38.3383 63.4618 41.0254 65.1536 41.0254 67.7255V71.0376C41.0254 72.3219 42.0702 73.3667 43.3545 73.3667C44.6416 73.3667 45.6836 72.325 45.6836 71.0376V62.1263C45.6836 60.7926 46.4605 59.5566 47.6637 58.9772L51.157 57.2989C53.4769 56.1834 56.1648 57.8744 56.1648 60.4462V66.8451C56.1648 67.4884 55.6435 68.0097 55.0002 68.0097C54.3569 68.0097 53.8356 67.4884 53.8356 66.8451V60.4462C53.8356 59.5894 52.9395 59.0264 52.1661 59.3983L48.6735 61.0762C48.2721 61.2695 48.0128 61.6816 48.0128 62.1265V71.0377C48.0128 72.2821 47.5283 73.452 46.6485 74.3318C45.7687 75.2116 44.5989 75.696 43.3545 75.696C40.7859 75.696 38.6962 73.6063 38.6962 71.0377V67.7257C38.6962 66.8725 37.8077 66.302 37.0267 66.6777L33.5341 68.3557C33.1327 68.549 32.8734 68.9611 32.8734 69.4059V74.5316C32.8734 77.1065 30.79 79.1899 28.2151 79.1899C25.6465 79.1899 23.5568 77.1002 23.5568 74.5316V73.154L12.4172 78.5098C10.0764 79.6351 7.353 79.338 5.31034 77.7346C3.26769 76.1313 2.33246 73.5566 2.86972 71.0157ZM24.7215 18.632C24.7215 21.2005 26.8112 23.2902 29.3798 23.2902C31.1076 23.2902 32.6464 22.3544 33.4533 20.8901C30.733 19.4212 27.9227 18.1118 25.0276 16.9724C24.8268 17.4985 24.7215 18.0596 24.7215 18.632ZM16.5696 40.7588C16.5696 38.4323 14.8552 36.4988 12.6234 36.155L10.6984 45.2567C13.6592 46.0543 16.5696 43.8151 16.5696 40.7588Z" fill="#C8792F"/>
</svg>
