<svg width="56" height="154" viewBox="0 0 56 154" fill="none" xmlns="http://www.w3.org/2000/svg">
<path d="M146 131C146 150.058 138.547 168.361 125.233 181.997C111.919 195.634 93.7997 203.523 74.7469 203.979C55.6941 204.435 37.2183 197.422 23.2671 184.438C9.31587 171.454 0.995475 153.529 0.0836062 134.493C-0.828263 115.456 5.7407 96.8181 18.387 82.5601C31.0333 68.3022 48.7541 59.5552 67.7633 58.1881C86.7725 56.8209 105.563 62.942 120.119 75.2435C134.676 87.545 143.844 105.051 145.666 124.022L129.848 125.541C128.423 110.7 121.25 97.0043 109.862 87.3806C98.4744 77.7569 83.7745 72.9683 68.9033 74.0378C54.032 75.1074 40.1687 81.9503 30.2752 93.1045C20.3818 104.259 15.2427 118.84 15.9561 133.732C16.6695 148.625 23.1787 162.648 34.093 172.806C45.0073 182.963 59.4612 188.45 74.3666 188.093C89.272 187.736 103.447 181.564 113.863 170.896C124.279 160.228 130.109 145.91 130.109 131H146Z" fill="#C8792F"/>
<path d="M150 73C150 113.317 117.317 146 77 146C36.6832 146 4 113.317 4 73C4 32.6832 36.6832 0 77 0C117.317 0 150 32.6832 150 73ZM20.7876 73C20.7876 104.045 45.9548 129.212 77 129.212C108.045 129.212 133.212 104.045 133.212 73C133.212 41.9548 108.045 16.7876 77 16.7876C45.9548 16.7876 20.7876 41.9548 20.7876 73Z" fill="#603813"/>
</svg>
