<?xml version="1.0" standalone="no"?>
<!DOCTYPE svg PUBLIC "-//W3C//DTD SVG 20010904//EN"
 "http://www.w3.org/TR/2001/REC-SVG-20010904/DTD/svg10.dtd">
<svg version="1.0" xmlns="http://www.w3.org/2000/svg"
 width="512.000000pt" height="512.000000pt" viewBox="0 0 512.000000 512.000000"
 preserveAspectRatio="xMidYMid meet">
<metadata>
Created by potrace 1.16, written by Peter Selinger 2001-2019
</metadata>
<g transform="translate(0.000000,512.000000) scale(0.100000,-0.100000)"
fill="#000000" stroke="none">
<path d="M1702 5097 c-14 -15 -22 -36 -22 -58 0 -20 49 -173 110 -343 61 -169
110 -312 110 -317 0 -5 -89 -9 -210 -9 -211 0 -211 0 -235 -25 -23 -22 -25
-32 -25 -119 0 -160 55 -257 179 -315 55 -26 60 -26 314 -29 l257 -3 0 -50 c0
-48 -1 -49 -44 -70 -111 -52 -176 -149 -184 -277 l-5 -73 -81 8 c-44 4 -162 8
-261 7 -166 0 -186 -2 -258 -26 -114 -38 -202 -95 -287 -185 -202 -213 -256
-456 -164 -735 44 -133 123 -240 235 -314 125 -83 262 -121 403 -112 l77 5 14
-34 c8 -18 36 -55 63 -81 l49 -48 -37 -21 c-52 -31 -157 -119 -211 -178 -72
-79 -116 -146 -164 -248 -135 -283 -131 -619 10 -896 14 -28 25 -53 25 -56 0
-3 -51 -5 -112 -5 -202 0 -297 -30 -388 -122 -108 -109 -152 -301 -83 -354 27
-20 2959 -20 2986 0 30 23 39 67 28 136 -27 168 -161 303 -327 330 -35 6 -427
10 -971 10 l-911 0 -46 72 c-161 251 -176 556 -41 823 84 166 202 285 365 370
136 70 219 89 380 89 110 0 150 -4 213 -22 301 -86 525 -315 603 -617 24 -93
25 -294 1 -383 -25 -94 -23 -136 9 -161 15 -12 41 -21 61 -21 54 0 77 32 103
141 34 137 32 335 -4 474 -28 109 -92 251 -154 342 -49 73 -171 195 -239 241
-49 32 -66 52 -44 52 4 0 29 18 54 40 117 103 137 284 46 417 -30 43 -95 94
-136 107 -17 5 -26 22 -39 67 -10 34 -34 86 -54 117 -34 54 -123 142 -142 142
-4 0 3 18 18 39 55 84 68 191 35 286 l-19 55 81 0 c376 0 840 127 1117 305
262 168 431 379 540 674 82 224 118 647 59 710 -11 11 -31 24 -45 27 -35 9
-92 -19 -98 -48 -3 -13 -7 -97 -10 -188 -8 -245 -46 -403 -142 -590 -146 -282
-394 -475 -773 -600 -226 -75 -424 -109 -625 -110 -80 0 -87 2 -80 18 17 39
16 161 -2 217 -22 72 -87 145 -159 181 l-55 26 0 49 0 48 258 3 c253 3 258 3
313 29 123 58 179 155 179 313 0 146 12 140 -262 146 l-224 5 84 270 c90 290
98 340 65 398 -11 18 -34 42 -53 54 -32 22 -39 23 -305 23 l-272 0 -23 -25
c-31 -33 -31 -87 1 -121 l22 -24 234 0 c197 0 234 -2 231 -14 -2 -8 -41 -138
-88 -290 l-85 -276 -170 2 -170 3 -122 345 c-68 190 -131 356 -142 370 -26 36
-98 40 -129 7z m1228 -928 c0 -29 -35 -76 -70 -94 -43 -22 -1137 -22 -1180 0
-35 18 -70 65 -70 94 l0 21 660 0 660 0 0 -21z m-608 -568 c90 -34 123 -167
56 -228 -22 -20 -28 -20 -119 -10 -90 10 -98 13 -113 38 -62 106 60 245 176
200z m-442 -368 c74 -9 136 -17 138 -18 2 -2 -8 -20 -22 -40 -66 -96 -66 -254
0 -350 l25 -38 -52 -46 c-66 -58 -121 -142 -143 -220 -13 -45 -22 -62 -39 -67
-66 -21 -156 -113 -173 -178 -9 -37 -31 -46 -111 -46 -227 1 -397 140 -458
375 -74 289 147 601 460 645 74 11 198 5 375 -17z m458 -113 c69 -42 90 -120
51 -190 -68 -121 -248 -84 -265 56 -14 110 118 193 214 134z m48 -474 c56 -26
114 -80 137 -129 l16 -32 -134 -3 c-74 -1 -196 -1 -270 0 l-134 3 16 32 c43
90 147 153 253 153 47 0 79 -7 116 -24z m304 -364 c43 -21 80 -75 80 -116 0
-41 -32 -91 -72 -116 -31 -19 -51 -20 -428 -20 -377 0 -397 1 -428 20 -69 42
-90 120 -49 181 46 69 48 69 477 69 347 0 388 -2 420 -18z m774 -1984 c40 -12
136 -95 136 -118 0 -7 -410 -10 -1330 -10 -920 0 -1330 3 -1330 10 0 21 95
106 130 117 53 17 2338 17 2394 1z"/>
</g>
</svg>
