<svg width="31" height="206" viewBox="0 0 31 206" fill="none" xmlns="http://www.w3.org/2000/svg">
<path d="M-116.454 131.565C-116.561 150.623 -109.212 168.968 -95.975 182.679C-82.7383 196.391 -64.6642 204.382 -45.6143 204.946C-26.5643 205.51 -8.04923 198.601 5.9752 185.697C19.9996 172.792 28.4213 154.914 29.4408 135.883C30.4603 116.852 23.9968 98.1771 11.4313 83.8478C-1.13419 69.5186 -18.8052 60.6716 -37.8064 59.197C-56.8075 57.7223 -75.632 63.7371 -90.2578 75.9561C-104.884 88.175 -114.151 105.629 -116.08 124.59L-100.271 126.198C-98.7618 111.365 -91.5117 97.7101 -80.0697 88.151C-68.6276 78.5918 -53.9009 73.8864 -39.0359 75.04C-24.171 76.1936 -10.3465 83.1148 -0.516326 94.3249C9.3139 105.535 14.3704 120.145 13.5728 135.033C12.7752 149.921 6.18685 163.908 -4.78474 174.003C-15.7563 184.099 -30.241 189.503 -45.1442 189.062C-60.0473 188.621 -74.187 182.37 -84.5424 171.643C-94.8977 160.916 -100.647 146.565 -100.563 131.655L-116.454 131.565Z" fill="#C8792F"/>
<path d="M-120.125 73.5437C-120.353 113.86 -87.8555 146.727 -47.5394 146.955C-7.22325 147.183 25.6443 114.685 25.8722 74.3693C26.1002 34.0532 -6.39765 1.18567 -46.7138 0.957684C-87.0299 0.729701 -119.897 33.2276 -120.125 73.5437ZM9.08487 74.2744C8.90931 105.319 -16.3997 130.344 -47.4445 130.168C-78.4892 129.992 -103.514 104.683 -103.338 73.6386C-103.163 42.5939 -77.8535 17.5695 -46.8087 17.7451C-15.764 17.9206 9.26042 43.2296 9.08487 74.2744Z" fill="#603813"/>
</svg>
