<svg width="52" height="84" viewBox="0 0 52 84" fill="none" xmlns="http://www.w3.org/2000/svg">
<path d="M168 0C168 21.3762 159.85 41.9482 145.211 57.5253C130.573 73.1022 110.546 82.5123 89.2106 83.8382C67.8756 85.1642 46.8376 78.3064 30.3825 64.662C13.9275 51.0175 3.29331 31.6128 0.646439 10.4012C-2.00043 -10.8105 3.53914 -32.2334 16.1366 -49.5032C28.7341 -66.7729 47.4417 -78.5903 68.4484 -82.5478C89.455 -86.5054 111.18 -82.3054 129.198 -70.8034C147.216 -59.3015 160.171 -41.3629 165.424 -20.6422L147.804 -16.1751C143.687 -32.4118 133.536 -46.4684 119.417 -55.4812C105.298 -64.4941 88.2745 -67.7852 71.8138 -64.6841C55.3531 -61.583 40.6939 -52.3229 30.8226 -38.7904C20.9512 -25.2579 16.6105 -8.47108 18.6845 8.15029C20.7586 24.7717 29.0915 39.9771 41.9856 50.6688C54.8797 61.3606 71.365 66.7343 88.083 65.6953C104.801 64.6562 120.494 57.2826 131.965 45.0765C143.436 32.8705 149.822 16.7503 149.822 0H168Z" fill="#E0BE9D"/>
</svg>
