<svg width="97" height="153" viewBox="0 0 97 153" fill="none" xmlns="http://www.w3.org/2000/svg">
<path d="M-98.6443 7.05629C-109.904 22.4329 -114.704 41.6031 -112.018 60.4712C-109.333 79.3393 -99.3748 96.4091 -84.2721 108.033C-69.1694 119.658 -50.1195 124.915 -31.1925 122.682C-12.2655 120.449 5.03766 110.902 17.0201 96.0818C29.0026 81.2616 34.7141 62.343 32.9344 43.3679C31.1548 24.3929 22.025 6.86627 7.49578 -5.4674C-7.03346 -17.8011 -25.81 -23.9637 -44.8222 -22.6386C-63.8343 -21.3135 -81.5744 -12.6058 -94.2523 1.62413L-82.3874 12.1948C-72.4693 1.06248 -58.5909 -5.74973 -43.7173 -6.78638C-28.8437 -7.82302 -14.1545 -3.00188 -2.78797 6.64699C8.57853 16.2959 15.7209 30.0073 17.1132 44.8518C18.5055 59.6963 14.0372 74.4968 4.6631 86.0909C-4.71101 97.685 -18.2476 105.153 -33.0546 106.901C-47.8615 108.648 -62.7646 104.535 -74.5797 95.4409C-86.3949 86.3469 -94.1851 72.9929 -96.2861 58.232C-98.387 43.4711 -94.632 28.4739 -85.8234 16.4445L-98.6443 7.05629Z" fill="#C8792F"/>
<path d="M-67.6052 -42.1023C-91.4244 -9.57404 -84.3643 36.1046 -51.836 59.9238C-19.3077 83.743 26.371 76.6828 50.1902 44.1545C74.0093 11.6262 66.9492 -34.0524 34.4209 -57.8716C1.89261 -81.6908 -43.786 -74.6306 -67.6052 -42.1023ZM36.6456 34.2364C18.3041 59.2842 -16.87 64.7208 -41.9178 46.3792C-66.9657 28.0377 -72.4022 -7.13636 -54.0607 -32.1842C-35.7191 -57.232 -0.545078 -62.6686 24.5028 -44.327C49.5506 -25.9855 54.9871 9.18854 36.6456 34.2364Z" fill="#603813"/>
</svg>
