<svg width="24" height="24" viewBox="0 0 24 24" fill="none" xmlns="http://www.w3.org/2000/svg">
<rect width="24" height="24" rx="12" fill="#603813"/>
<g clip-path="url(#clip0_14_1172)">
<path d="M12.5029 0H12.4971C6.15633 0 1.00002 5.15775 1.00002 11.5C0.996078 13.9222 1.76282 16.2829 3.18933 18.2404L1.75614 22.5127L6.17645 21.0996C8.05149 22.3436 10.2527 23.0048 12.5029 23C18.8437 23 24 17.8408 24 11.5C24 5.15919 18.8437 0 12.5029 0Z" fill="#603813"/>
<path d="M19.1945 16.2394C18.9171 17.0229 17.816 17.6726 16.9377 17.8624C16.3368 17.9903 15.5519 18.0924 12.9098 16.997C9.53023 15.5969 7.35385 12.1627 7.18423 11.9399C7.02179 11.7171 5.8186 10.1214 5.8186 8.47119C5.8186 6.82094 6.65667 6.01737 6.99448 5.67237C7.27192 5.38919 7.73048 5.25981 8.17035 5.25981C8.31267 5.25981 8.4406 5.267 8.5556 5.27275C8.89342 5.28712 9.06304 5.30725 9.28585 5.84056C9.56329 6.509 10.2389 8.15925 10.3194 8.32887C10.4014 8.4985 10.4833 8.7285 10.3683 8.95131C10.2605 9.18131 10.1656 9.28337 9.99598 9.47887C9.82635 9.67437 9.66535 9.82387 9.49573 10.0337C9.34048 10.2163 9.1651 10.4118 9.3606 10.7496C9.5561 11.0802 10.2317 12.1828 11.2265 13.0683C12.5102 14.2111 13.5509 14.5762 13.9232 14.7315C14.2007 14.8465 14.5313 14.8192 14.734 14.6036C14.9913 14.3261 15.309 13.8661 15.6324 13.4133C15.8624 13.0884 16.1528 13.0482 16.4575 13.1632C16.768 13.271 18.4111 14.0832 18.7489 14.2514C19.0867 14.421 19.3095 14.5015 19.3915 14.6438C19.472 14.7861 19.472 15.4546 19.1945 16.2394Z" fill="#E0BE9D"/>
</g>
<defs>
<clipPath id="clip0_14_1172">
<rect width="23" height="23" fill="white" transform="translate(1)"/>
</clipPath>
</defs>
</svg>
